<?xml version="1.0" encoding="UTF-8"?>
<svg id="Layer_1" data-name="Layer 1" xmlns="http://www.w3.org/2000/svg" viewBox="0 0 204.52 42.3">
  <defs>
    <style>
      .cls-1 {
        fill: #6d6d6d;
      }

      .cls-2 {
        fill: #fff;
      }

      .cls-3 {
        fill: #666;
      }

      .cls-4 {
        fill: #4c4c4c;
      }
    </style>
  </defs>
  <path class="cls-1" d="M56.23,6.47h5.8l7.77,18.97h.31l7.77-18.97h5.8v26.18h-4.55V14.66h-.24l-7.24,17.91h-3.4l-7.24-17.95h-.24v18.03h-4.55V6.47ZM88.65,32.65V13.01h4.63v19.64h-4.63ZM90.98,10.23c-.73,0-1.36-.24-1.89-.73-.53-.49-.79-1.09-.79-1.78s.26-1.29.79-1.78c.53-.49,1.16-.74,1.89-.74s1.37.25,1.89.74c.53.49.79,1.08.79,1.78s-.26,1.28-.79,1.78c-.52.49-1.15.73-1.89.73ZM106.58,40.42c-1.66,0-3.09-.23-4.28-.68-1.19-.44-2.15-1.04-2.88-1.79-.72-.75-1.23-1.58-1.51-2.49l4.17-1.01c.19.38.46.76.82,1.14.36.38.84.7,1.44.95.61.26,1.39.38,2.31.38,1.31,0,2.4-.32,3.26-.96.86-.63,1.29-1.67,1.29-3.12v-3.72h-.23c-.24.48-.59.97-1.05,1.47-.45.5-1.05.92-1.8,1.27-.74.34-1.67.51-2.8.51-1.51,0-2.88-.35-4.1-1.06-1.22-.72-2.19-1.78-2.92-3.2-.72-1.42-1.07-3.2-1.07-5.34s.36-3.98,1.07-5.46c.72-1.49,1.7-2.62,2.93-3.39,1.23-.78,2.6-1.16,4.1-1.16,1.15,0,2.1.2,2.84.59.75.38,1.35.85,1.79,1.39.44.54.78,1.04,1.01,1.52h.26v-3.25h4.56v19.96c0,1.68-.4,3.07-1.2,4.17-.8,1.1-1.9,1.92-3.29,2.47-1.39.55-2.96.82-4.73.82ZM106.62,28.74c.98,0,1.81-.24,2.5-.72.69-.48,1.22-1.16,1.57-2.06.36-.89.54-1.97.54-3.22s-.18-2.32-.54-3.25c-.35-.93-.87-1.65-1.56-2.16-.68-.52-1.52-.78-2.52-.78s-1.89.27-2.58.81c-.69.54-1.21,1.27-1.56,2.21-.35.93-.52,1.99-.52,3.17s.17,2.25.52,3.16c.36.89.88,1.59,1.57,2.1.7.49,1.56.74,2.57.74ZM120.54,32.65V13.01h4.42v3.34h.23c.41-1.12,1.09-2,2.03-2.63.95-.64,2.07-.96,3.39-.96s2.45.32,3.36.97c.92.64,1.57,1.51,1.94,2.62h.2c.43-1.09,1.17-1.96,2.2-2.61,1.04-.66,2.27-.98,3.7-.98,1.81,0,3.28.57,4.42,1.71,1.14,1.14,1.71,2.81,1.71,5v13.18h-4.64v-12.46c0-1.22-.32-2.11-.97-2.67-.65-.57-1.44-.86-2.38-.86-1.12,0-1.99.35-2.62,1.05-.62.69-.93,1.59-.93,2.7v12.25h-4.54v-12.66c0-1.01-.31-1.82-.92-2.43-.6-.61-1.4-.91-2.38-.91-.67,0-1.27.17-1.82.51-.55.33-.98.81-1.3,1.42-.32.61-.49,1.31-.49,2.12v11.94h-4.63ZM158.5,33.05c-1.24,0-2.37-.22-3.36-.66-.99-.45-1.77-1.12-2.35-1.99-.57-.88-.86-1.96-.86-3.25,0-1.11.2-2.02.61-2.75.41-.72.97-1.3,1.67-1.74.71-.43,1.5-.76,2.39-.98.9-.23,1.82-.4,2.77-.5,1.15-.12,2.08-.23,2.8-.32.71-.1,1.24-.26,1.56-.46.33-.21.5-.54.5-.98v-.08c0-.96-.29-1.71-.86-2.24-.57-.53-1.39-.79-2.47-.79-1.13,0-2.03.25-2.7.74-.66.49-1.1,1.08-1.33,1.75l-4.32-.61c.34-1.19.9-2.19,1.69-2.99.78-.81,1.74-1.41,2.88-1.82,1.13-.41,2.39-.61,3.76-.61.95,0,1.89.11,2.83.33.94.22,1.79.59,2.57,1.1.78.5,1.4,1.19,1.87,2.06.48.87.72,1.96.72,3.26v13.14h-4.45v-2.7h-.15c-.28.55-.68,1.06-1.19,1.53-.5.47-1.14.85-1.9,1.14-.76.28-1.65.42-2.67.42ZM159.7,29.65c.93,0,1.74-.18,2.42-.55.68-.38,1.21-.87,1.57-1.48.38-.61.56-1.28.56-2.01v-2.31c-.15.12-.39.23-.74.33-.34.1-.72.19-1.15.27-.43.08-.85.14-1.27.2-.42.06-.78.11-1.09.15-.69.09-1.31.25-1.85.46-.55.21-.98.51-1.29.89-.32.38-.47.86-.47,1.46,0,.85.31,1.5.93,1.93.62.43,1.41.65,2.38.65ZM177.09,32.65h-5.06l9.22-26.18h5.86l9.23,26.18h-5.06l-6.99-20.81h-.2l-6.98,20.81ZM177.25,22.38h13.81v3.81h-13.81v-3.81ZM204.52,6.47v26.18h-4.74V6.47h4.74Z"/>
  <path class="cls-4" d="M32.9,0H9.4C4.21,0,0,4.21,0,9.4v23.5c0,5.19,4.21,9.4,9.4,9.4h23.5c5.19,0,9.4-4.21,9.4-9.4V9.4c0-5.19-4.21-9.4-9.4-9.4Z"/>
  <path class="cls-2" d="M11.75,11.75l9.4,7.05,9.4-7.05v18.8l-9.4-7.05-9.4,7.05V11.75Z"/>
  <path class="cls-3" d="M11.75,30.55l9.4-7.05,9.4,7.05H11.75Z"/>
</svg>