<svg width="210" height="47" viewBox="0 0 210 47" fill="none" xmlns="http://www.w3.org/2000/svg">
<mask id="path-1-outside-1_304_2" maskUnits="userSpaceOnUse" x="57" y="6" width="151" height="38" fill="black">
<rect fill="white" x="57" y="6" width="151" height="38"/>
<path d="M58.5824 8.81818H64.3864L72.1591 27.7898H72.4659L80.2386 8.81818H86.0426V35H81.4915V17.0128H81.2486L74.0128 34.9233H70.6122L63.3764 16.9744H63.1335V35H58.5824V8.81818ZM91.0028 35V15.3636H95.6307V35H91.0028ZM93.3295 12.5767C92.5966 12.5767 91.9659 12.3338 91.4375 11.848C90.9091 11.3537 90.6449 10.7614 90.6449 10.071C90.6449 9.37216 90.9091 8.77983 91.4375 8.29403C91.9659 7.79971 92.5966 7.55256 93.3295 7.55256C94.071 7.55256 94.7017 7.79971 95.2216 8.29403C95.75 8.77983 96.0142 9.37216 96.0142 10.071C96.0142 10.7614 95.75 11.3537 95.2216 11.848C94.7017 12.3338 94.071 12.5767 93.3295 12.5767ZM108.929 42.7727C107.267 42.7727 105.84 42.5469 104.647 42.0952C103.453 41.652 102.495 41.0554 101.77 40.3054C101.046 39.5554 100.543 38.7244 100.262 37.8125L104.429 36.8026C104.617 37.1861 104.89 37.5653 105.248 37.9403C105.605 38.3239 106.087 38.6392 106.692 38.8864C107.306 39.142 108.077 39.2699 109.006 39.2699C110.319 39.2699 111.405 38.9503 112.266 38.3111C113.127 37.6804 113.557 36.6406 113.557 35.1918V31.4716H113.327C113.088 31.9489 112.739 32.4389 112.279 32.9418C111.827 33.4446 111.226 33.8665 110.476 34.2074C109.735 34.5483 108.801 34.7188 107.676 34.7188C106.168 34.7188 104.8 34.3651 103.573 33.6577C102.354 32.9418 101.382 31.8764 100.658 30.4616C99.9421 29.0384 99.5842 27.2571 99.5842 25.1179C99.5842 22.9616 99.9421 21.142 100.658 19.6591C101.382 18.1676 102.358 17.0384 103.586 16.2713C104.813 15.4957 106.181 15.108 107.689 15.108C108.84 15.108 109.786 15.304 110.527 15.696C111.277 16.0795 111.874 16.544 112.317 17.0895C112.76 17.6264 113.097 18.1335 113.327 18.6108H113.583V15.3636H118.147V35.3196C118.147 36.9986 117.746 38.3878 116.945 39.4872C116.144 40.5866 115.049 41.4091 113.659 41.9545C112.27 42.5 110.694 42.7727 108.929 42.7727ZM108.968 31.0881C109.948 31.0881 110.783 30.8494 111.473 30.3722C112.164 29.8949 112.688 29.2088 113.046 28.3139C113.404 27.419 113.583 26.3452 113.583 25.0923C113.583 23.8565 113.404 22.7741 113.046 21.8452C112.696 20.9162 112.176 20.196 111.486 19.6847C110.804 19.1648 109.965 18.9048 108.968 18.9048C107.936 18.9048 107.076 19.1733 106.385 19.7102C105.695 20.2472 105.175 20.9844 104.826 21.9219C104.476 22.8509 104.301 23.9077 104.301 25.0923C104.301 26.294 104.476 27.3466 104.826 28.25C105.184 29.1449 105.708 29.8437 106.398 30.3466C107.097 30.8409 107.953 31.0881 108.968 31.0881ZM122.89 35V15.3636H127.313V18.7003H127.543C127.952 17.5753 128.63 16.6974 129.576 16.0668C130.522 15.4276 131.651 15.108 132.963 15.108C134.293 15.108 135.414 15.4318 136.326 16.0795C137.246 16.7187 137.894 17.5923 138.269 18.7003H138.473C138.908 17.6094 139.641 16.7401 140.672 16.0923C141.712 15.4361 142.944 15.108 144.367 15.108C146.174 15.108 147.648 15.679 148.79 16.821C149.932 17.9631 150.503 19.6293 150.503 21.8196V35H145.863V22.5355C145.863 21.3168 145.539 20.4261 144.891 19.8636C144.243 19.2926 143.451 19.0071 142.513 19.0071C141.397 19.0071 140.523 19.3565 139.892 20.0554C139.27 20.7457 138.959 21.6449 138.959 22.7528V35H134.421V22.3438C134.421 21.3295 134.114 20.5199 133.5 19.9148C132.895 19.3097 132.103 19.0071 131.123 19.0071C130.458 19.0071 129.853 19.1776 129.307 19.5185C128.762 19.8509 128.327 20.3239 128.003 20.9375C127.679 21.5426 127.517 22.25 127.517 23.0597V35H122.89ZM160.849 35.3963C159.604 35.3963 158.484 35.1747 157.487 34.7315C156.498 34.2798 155.714 33.6151 155.134 32.7372C154.563 31.8594 154.278 30.777 154.278 29.4901C154.278 28.3821 154.482 27.4659 154.891 26.7415C155.3 26.017 155.859 25.4375 156.566 25.0028C157.273 24.5682 158.07 24.2401 158.957 24.0185C159.852 23.7884 160.776 23.6222 161.731 23.5199C162.881 23.4006 163.815 23.294 164.531 23.2003C165.246 23.098 165.766 22.9446 166.09 22.7401C166.423 22.527 166.589 22.1989 166.589 21.7557V21.679C166.589 20.7159 166.303 19.9702 165.732 19.4418C165.161 18.9134 164.339 18.6491 163.265 18.6491C162.131 18.6491 161.232 18.8963 160.567 19.3906C159.911 19.8849 159.468 20.4687 159.238 21.142L154.917 20.5284C155.258 19.3352 155.82 18.3381 156.604 17.5369C157.388 16.7273 158.347 16.1222 159.481 15.7216C160.614 15.3125 161.867 15.108 163.239 15.108C164.185 15.108 165.127 15.2188 166.065 15.4403C167.002 15.6619 167.859 16.0284 168.634 16.5398C169.41 17.0426 170.032 17.7287 170.501 18.598C170.978 19.4673 171.217 20.554 171.217 21.858V35H166.768V32.3026H166.614C166.333 32.848 165.937 33.3594 165.425 33.8366C164.923 34.3054 164.288 34.6847 163.521 34.9744C162.762 35.2557 161.871 35.3963 160.849 35.3963ZM162.05 31.9957C162.979 31.9957 163.785 31.8125 164.467 31.446C165.148 31.071 165.673 30.5767 166.039 29.9631C166.414 29.3494 166.602 28.6804 166.602 27.956V25.642C166.457 25.7614 166.21 25.8722 165.86 25.9744C165.519 26.0767 165.136 26.1662 164.71 26.2429C164.283 26.3196 163.862 26.3878 163.444 26.4474C163.026 26.5071 162.664 26.5582 162.357 26.6009C161.667 26.6946 161.049 26.848 160.504 27.0611C159.958 27.2741 159.528 27.5724 159.212 27.956C158.897 28.331 158.739 28.8168 158.739 29.4134C158.739 30.2656 159.05 30.9091 159.673 31.3438C160.295 31.7784 161.087 31.9957 162.05 31.9957ZM179.437 35H174.374L183.592 8.81818H189.447L198.677 35H193.614L186.621 14.1875H186.417L179.437 35ZM179.603 24.7344H193.41V28.544H179.603V24.7344ZM206.868 8.81818V35H202.125V8.81818H206.868Z"/>
</mask>
<path d="M58.5824 8.81818H64.3864L72.1591 27.7898H72.4659L80.2386 8.81818H86.0426V35H81.4915V17.0128H81.2486L74.0128 34.9233H70.6122L63.3764 16.9744H63.1335V35H58.5824V8.81818ZM91.0028 35V15.3636H95.6307V35H91.0028ZM93.3295 12.5767C92.5966 12.5767 91.9659 12.3338 91.4375 11.848C90.9091 11.3537 90.6449 10.7614 90.6449 10.071C90.6449 9.37216 90.9091 8.77983 91.4375 8.29403C91.9659 7.79971 92.5966 7.55256 93.3295 7.55256C94.071 7.55256 94.7017 7.79971 95.2216 8.29403C95.75 8.77983 96.0142 9.37216 96.0142 10.071C96.0142 10.7614 95.75 11.3537 95.2216 11.848C94.7017 12.3338 94.071 12.5767 93.3295 12.5767ZM108.929 42.7727C107.267 42.7727 105.84 42.5469 104.647 42.0952C103.453 41.652 102.495 41.0554 101.77 40.3054C101.046 39.5554 100.543 38.7244 100.262 37.8125L104.429 36.8026C104.617 37.1861 104.89 37.5653 105.248 37.9403C105.605 38.3239 106.087 38.6392 106.692 38.8864C107.306 39.142 108.077 39.2699 109.006 39.2699C110.319 39.2699 111.405 38.9503 112.266 38.3111C113.127 37.6804 113.557 36.6406 113.557 35.1918V31.4716H113.327C113.088 31.9489 112.739 32.4389 112.279 32.9418C111.827 33.4446 111.226 33.8665 110.476 34.2074C109.735 34.5483 108.801 34.7188 107.676 34.7188C106.168 34.7188 104.8 34.3651 103.573 33.6577C102.354 32.9418 101.382 31.8764 100.658 30.4616C99.9421 29.0384 99.5842 27.2571 99.5842 25.1179C99.5842 22.9616 99.9421 21.142 100.658 19.6591C101.382 18.1676 102.358 17.0384 103.586 16.2713C104.813 15.4957 106.181 15.108 107.689 15.108C108.84 15.108 109.786 15.304 110.527 15.696C111.277 16.0795 111.874 16.544 112.317 17.0895C112.76 17.6264 113.097 18.1335 113.327 18.6108H113.583V15.3636H118.147V35.3196C118.147 36.9986 117.746 38.3878 116.945 39.4872C116.144 40.5866 115.049 41.4091 113.659 41.9545C112.27 42.5 110.694 42.7727 108.929 42.7727ZM108.968 31.0881C109.948 31.0881 110.783 30.8494 111.473 30.3722C112.164 29.8949 112.688 29.2088 113.046 28.3139C113.404 27.419 113.583 26.3452 113.583 25.0923C113.583 23.8565 113.404 22.7741 113.046 21.8452C112.696 20.9162 112.176 20.196 111.486 19.6847C110.804 19.1648 109.965 18.9048 108.968 18.9048C107.936 18.9048 107.076 19.1733 106.385 19.7102C105.695 20.2472 105.175 20.9844 104.826 21.9219C104.476 22.8509 104.301 23.9077 104.301 25.0923C104.301 26.294 104.476 27.3466 104.826 28.25C105.184 29.1449 105.708 29.8437 106.398 30.3466C107.097 30.8409 107.953 31.0881 108.968 31.0881ZM122.89 35V15.3636H127.313V18.7003H127.543C127.952 17.5753 128.63 16.6974 129.576 16.0668C130.522 15.4276 131.651 15.108 132.963 15.108C134.293 15.108 135.414 15.4318 136.326 16.0795C137.246 16.7187 137.894 17.5923 138.269 18.7003H138.473C138.908 17.6094 139.641 16.7401 140.672 16.0923C141.712 15.4361 142.944 15.108 144.367 15.108C146.174 15.108 147.648 15.679 148.79 16.821C149.932 17.9631 150.503 19.6293 150.503 21.8196V35H145.863V22.5355C145.863 21.3168 145.539 20.4261 144.891 19.8636C144.243 19.2926 143.451 19.0071 142.513 19.0071C141.397 19.0071 140.523 19.3565 139.892 20.0554C139.27 20.7457 138.959 21.6449 138.959 22.7528V35H134.421V22.3438C134.421 21.3295 134.114 20.5199 133.5 19.9148C132.895 19.3097 132.103 19.0071 131.123 19.0071C130.458 19.0071 129.853 19.1776 129.307 19.5185C128.762 19.8509 128.327 20.3239 128.003 20.9375C127.679 21.5426 127.517 22.25 127.517 23.0597V35H122.89ZM160.849 35.3963C159.604 35.3963 158.484 35.1747 157.487 34.7315C156.498 34.2798 155.714 33.6151 155.134 32.7372C154.563 31.8594 154.278 30.777 154.278 29.4901C154.278 28.3821 154.482 27.4659 154.891 26.7415C155.3 26.017 155.859 25.4375 156.566 25.0028C157.273 24.5682 158.07 24.2401 158.957 24.0185C159.852 23.7884 160.776 23.6222 161.731 23.5199C162.881 23.4006 163.815 23.294 164.531 23.2003C165.246 23.098 165.766 22.9446 166.09 22.7401C166.423 22.527 166.589 22.1989 166.589 21.7557V21.679C166.589 20.7159 166.303 19.9702 165.732 19.4418C165.161 18.9134 164.339 18.6491 163.265 18.6491C162.131 18.6491 161.232 18.8963 160.567 19.3906C159.911 19.8849 159.468 20.4687 159.238 21.142L154.917 20.5284C155.258 19.3352 155.82 18.3381 156.604 17.5369C157.388 16.7273 158.347 16.1222 159.481 15.7216C160.614 15.3125 161.867 15.108 163.239 15.108C164.185 15.108 165.127 15.2188 166.065 15.4403C167.002 15.6619 167.859 16.0284 168.634 16.5398C169.41 17.0426 170.032 17.7287 170.501 18.598C170.978 19.4673 171.217 20.554 171.217 21.858V35H166.768V32.3026H166.614C166.333 32.848 165.937 33.3594 165.425 33.8366C164.923 34.3054 164.288 34.6847 163.521 34.9744C162.762 35.2557 161.871 35.3963 160.849 35.3963ZM162.05 31.9957C162.979 31.9957 163.785 31.8125 164.467 31.446C165.148 31.071 165.673 30.5767 166.039 29.9631C166.414 29.3494 166.602 28.6804 166.602 27.956V25.642C166.457 25.7614 166.21 25.8722 165.86 25.9744C165.519 26.0767 165.136 26.1662 164.71 26.2429C164.283 26.3196 163.862 26.3878 163.444 26.4474C163.026 26.5071 162.664 26.5582 162.357 26.6009C161.667 26.6946 161.049 26.848 160.504 27.0611C159.958 27.2741 159.528 27.5724 159.212 27.956C158.897 28.331 158.739 28.8168 158.739 29.4134C158.739 30.2656 159.05 30.9091 159.673 31.3438C160.295 31.7784 161.087 31.9957 162.05 31.9957ZM179.437 35H174.374L183.592 8.81818H189.447L198.677 35H193.614L186.621 14.1875H186.417L179.437 35ZM179.603 24.7344H193.41V28.544H179.603V24.7344ZM206.868 8.81818V35H202.125V8.81818H206.868Z" fill="black"/>
<path d="M58.5824 8.81818V7.81818H57.5824V8.81818H58.5824ZM64.3864 8.81818L65.3117 8.43906L65.0573 7.81818H64.3864V8.81818ZM72.1591 27.7898L71.2337 28.1689L71.4881 28.7898H72.1591V27.7898ZM72.4659 27.7898V28.7898H73.1369L73.3913 28.1689L72.4659 27.7898ZM80.2386 8.81818V7.81818H79.5677L79.3133 8.43906L80.2386 8.81818ZM86.0426 8.81818H87.0426V7.81818H86.0426V8.81818ZM86.0426 35V36H87.0426V35H86.0426ZM81.4915 35H80.4915V36H81.4915V35ZM81.4915 17.0128H82.4915V16.0128H81.4915V17.0128ZM81.2486 17.0128V16.0128H80.5741L80.3214 16.6382L81.2486 17.0128ZM74.0128 34.9233V35.9233H74.6873L74.94 35.2979L74.0128 34.9233ZM70.6122 34.9233L69.6847 35.2972L69.9371 35.9233H70.6122V34.9233ZM63.3764 16.9744L64.3039 16.6005L64.0515 15.9744H63.3764V16.9744ZM63.1335 16.9744V15.9744H62.1335V16.9744H63.1335ZM63.1335 35V36H64.1335V35H63.1335ZM58.5824 35H57.5824V36H58.5824V35ZM58.5824 8.81818V9.81818H64.3864V8.81818V7.81818H58.5824V8.81818ZM64.3864 8.81818L63.461 9.1973L71.2337 28.1689L72.1591 27.7898L73.0844 27.4107L65.3117 8.43906L64.3864 8.81818ZM72.1591 27.7898V28.7898H72.4659V27.7898V26.7898H72.1591V27.7898ZM72.4659 27.7898L73.3913 28.1689L81.164 9.1973L80.2386 8.81818L79.3133 8.43906L71.5406 27.4107L72.4659 27.7898ZM80.2386 8.81818V9.81818H86.0426V8.81818V7.81818H80.2386V8.81818ZM86.0426 8.81818H85.0426V35H86.0426H87.0426V8.81818H86.0426ZM86.0426 35V34H81.4915V35V36H86.0426V35ZM81.4915 35H82.4915V17.0128H81.4915H80.4915V35H81.4915ZM81.4915 17.0128V16.0128H81.2486V17.0128V18.0128H81.4915V17.0128ZM81.2486 17.0128L80.3214 16.6382L73.0856 34.5487L74.0128 34.9233L74.94 35.2979L82.1758 17.3874L81.2486 17.0128ZM74.0128 34.9233V33.9233H70.6122V34.9233V35.9233H74.0128V34.9233ZM70.6122 34.9233L71.5397 34.5494L64.3039 16.6005L63.3764 16.9744L62.4489 17.3483L69.6847 35.2972L70.6122 34.9233ZM63.3764 16.9744V15.9744H63.1335V16.9744V17.9744H63.3764V16.9744ZM63.1335 16.9744H62.1335V35H63.1335H64.1335V16.9744H63.1335ZM63.1335 35V34H58.5824V35V36H63.1335V35ZM58.5824 35H59.5824V8.81818H58.5824H57.5824V35H58.5824ZM91.0028 35H90.0028V36H91.0028V35ZM91.0028 15.3636V14.3636H90.0028V15.3636H91.0028ZM95.6307 15.3636H96.6307V14.3636H95.6307V15.3636ZM95.6307 35V36H96.6307V35H95.6307ZM91.4375 11.848L90.7543 12.5783L90.7607 12.5842L91.4375 11.848ZM91.4375 8.29403L92.1143 9.03023L92.1207 9.0243L91.4375 8.29403ZM95.2216 8.29403L94.5325 9.01874L94.5386 9.02452L94.5448 9.0302L95.2216 8.29403ZM95.2216 11.848L95.9043 12.5787L95.9047 12.5783L95.2216 11.848ZM91.0028 35H92.0028V15.3636H91.0028H90.0028V35H91.0028ZM91.0028 15.3636V16.3636H95.6307V15.3636V14.3636H91.0028V15.3636ZM95.6307 15.3636H94.6307V35H95.6307H96.6307V15.3636H95.6307ZM95.6307 35V34H91.0028V35V36H95.6307V35ZM93.3295 12.5767V11.5767C92.8414 11.5767 92.4539 11.424 92.1143 11.1118L91.4375 11.848L90.7607 12.5842C91.4779 13.2436 92.3518 13.5767 93.3295 13.5767V12.5767ZM91.4375 11.848L92.1207 11.1177C91.7834 10.8023 91.6449 10.4699 91.6449 10.071H90.6449H89.6449C89.6449 11.0528 90.0348 11.9051 90.7543 12.5783L91.4375 11.848ZM90.6449 10.071H91.6449C91.6449 9.66044 91.7855 9.33245 92.1143 9.0302L91.4375 8.29403L90.7607 7.55787C90.0326 8.22721 89.6449 9.08388 89.6449 10.071H90.6449ZM91.4375 8.29403L92.1207 9.0243C92.4612 8.70578 92.8466 8.55256 93.3295 8.55256V7.55256V6.55256C92.3466 6.55256 91.4707 6.89365 90.7543 7.56376L91.4375 8.29403ZM93.3295 7.55256V8.55256C93.8241 8.55256 94.2053 8.70763 94.5325 9.01874L95.2216 8.29403L95.9107 7.56933C95.1981 6.8918 94.318 6.55256 93.3295 6.55256V7.55256ZM95.2216 8.29403L94.5448 9.0302C94.8735 9.33245 95.0142 9.66044 95.0142 10.071H96.0142H97.0142C97.0142 9.08388 96.6265 8.22721 95.8984 7.55787L95.2216 8.29403ZM96.0142 10.071H95.0142C95.0142 10.4699 94.8757 10.8023 94.5384 11.1177L95.2216 11.848L95.9047 12.5783C96.6243 11.9051 97.0142 11.0528 97.0142 10.071H96.0142ZM95.2216 11.848L94.5388 11.1174C94.2126 11.4222 93.8293 11.5767 93.3295 11.5767V12.5767V13.5767C94.3127 13.5767 95.1908 13.2454 95.9043 12.5787L95.2216 11.848ZM104.647 42.0952L105.001 41.1599L104.995 41.1577L104.647 42.0952ZM101.77 40.3054L102.49 39.6107L102.49 39.6107L101.77 40.3054ZM100.262 37.8125L100.026 36.8406L98.9927 37.0911L99.3061 38.1072L100.262 37.8125ZM104.429 36.8026L105.328 36.3633L104.975 35.6414L104.194 35.8307L104.429 36.8026ZM105.248 37.9403L105.979 37.258L105.971 37.2499L105.248 37.9403ZM106.692 38.8864L107.077 37.9633L107.07 37.9606L106.692 38.8864ZM112.266 38.3111L111.675 37.5044L111.67 37.5082L112.266 38.3111ZM113.557 31.4716H114.557V30.4716H113.557V31.4716ZM113.327 31.4716V30.4716H112.709L112.433 31.0244L113.327 31.4716ZM112.279 32.9418L111.541 32.2666L111.535 32.2735L112.279 32.9418ZM110.476 34.2074L110.062 33.297L110.058 33.2988L110.476 34.2074ZM103.573 33.6577L103.066 34.5199L103.073 34.5241L103.573 33.6577ZM100.658 30.4616L99.7646 30.911L99.7679 30.9174L100.658 30.4616ZM100.658 19.6591L99.7585 19.2222L99.7575 19.2243L100.658 19.6591ZM103.586 16.2713L104.116 17.1193L104.12 17.1167L103.586 16.2713ZM110.527 15.696L110.06 16.5801L110.072 16.5864L110.527 15.696ZM112.317 17.0895L111.541 17.7201L111.546 17.7261L112.317 17.0895ZM113.327 18.6108L112.426 19.0451L112.699 19.6108H113.327V18.6108ZM113.583 18.6108V19.6108H114.583V18.6108H113.583ZM113.583 15.3636V14.3636H112.583V15.3636H113.583ZM118.147 15.3636H119.147V14.3636H118.147V15.3636ZM116.945 39.4872L117.753 40.0761L117.753 40.0761L116.945 39.4872ZM113.659 41.9545L114.025 42.8854L114.025 42.8854L113.659 41.9545ZM111.473 30.3722L110.905 29.5496L110.905 29.5496L111.473 30.3722ZM113.046 21.8452L112.11 22.1972L112.113 22.2047L113.046 21.8452ZM111.486 19.6847L110.88 20.4799L110.891 20.4882L111.486 19.6847ZM106.385 19.7102L105.771 18.9209L105.771 18.9209L106.385 19.7102ZM104.826 21.9219L105.762 22.2739L105.763 22.2711L104.826 21.9219ZM104.826 28.25L103.893 28.6108L103.897 28.6214L104.826 28.25ZM106.398 30.3466L105.809 31.155L105.821 31.163L106.398 30.3466ZM108.929 42.7727V41.7727C107.354 41.7727 106.052 41.558 105.001 41.1599L104.647 42.0952L104.293 43.0304C105.627 43.5357 107.181 43.7727 108.929 43.7727V42.7727ZM104.647 42.0952L104.995 41.1577C103.912 40.7554 103.09 40.2319 102.49 39.6107L101.77 40.3054L101.051 41.0001C101.9 41.8789 102.995 42.5486 104.298 43.0326L104.647 42.0952ZM101.77 40.3054L102.49 39.6107C101.864 38.9629 101.448 38.2661 101.217 37.5178L100.262 37.8125L99.3061 38.1072C99.6378 39.1827 100.228 40.1479 101.051 41.0001L101.77 40.3054ZM100.262 37.8125L100.497 38.7844L104.665 37.7744L104.429 36.8026L104.194 35.8307L100.026 36.8406L100.262 37.8125ZM104.429 36.8026L103.531 37.2418C103.772 37.7348 104.11 38.1969 104.524 38.6308L105.248 37.9403L105.971 37.2499C105.669 36.9338 105.462 36.6373 105.328 36.3633L104.429 36.8026ZM105.248 37.9403L104.516 38.6227C104.994 39.1346 105.607 39.5234 106.314 39.8121L106.692 38.8864L107.07 37.9606C106.567 37.755 106.217 37.5132 105.979 37.258L105.248 37.9403ZM106.692 38.8864L106.308 39.8094C107.081 40.1318 107.994 40.2699 109.006 40.2699V39.2699V38.2699C108.16 38.2699 107.53 38.1523 107.077 37.9633L106.692 38.8864ZM109.006 39.2699V40.2699C110.484 40.2699 111.793 39.9076 112.862 39.1139L112.266 38.3111L111.67 37.5082C111.017 37.9929 110.153 38.2699 109.006 38.2699V39.2699ZM112.266 38.3111L112.857 39.1177C114.06 38.2361 114.557 36.836 114.557 35.1918H113.557H112.557C112.557 36.4453 112.193 37.1247 111.675 37.5044L112.266 38.3111ZM113.557 35.1918H114.557V31.4716H113.557H112.557V35.1918H113.557ZM113.557 31.4716V30.4716H113.327V31.4716V32.4716H113.557V31.4716ZM113.327 31.4716L112.433 31.0244C112.245 31.3995 111.955 31.8142 111.541 32.2666L112.279 32.9418L113.016 33.6169C113.523 33.0637 113.932 32.4982 114.221 31.9188L113.327 31.4716ZM112.279 32.9418L111.535 32.2735C111.193 32.6539 110.714 33.001 110.062 33.297L110.476 34.2074L110.89 35.1178C111.739 34.732 112.461 34.2353 113.023 33.61L112.279 32.9418ZM110.476 34.2074L110.058 33.2988C109.488 33.5612 108.709 33.7188 107.676 33.7188V34.7188V35.7188C108.894 35.7188 109.982 35.5354 110.894 35.116L110.476 34.2074ZM107.676 34.7188V33.7188C106.331 33.7188 105.138 33.4054 104.072 32.7913L103.573 33.6577L103.073 34.5241C104.462 35.3247 106.004 35.7188 107.676 35.7188V34.7188ZM103.573 33.6577L104.079 32.7954C103.044 32.1874 102.197 31.2732 101.548 30.0059L100.658 30.4616L99.7679 30.9174C100.568 32.4797 101.664 33.6961 103.066 34.5199L103.573 33.6577ZM100.658 30.4616L101.551 30.0123C100.925 28.7678 100.584 27.1521 100.584 25.1179H99.5842H98.5842C98.5842 27.3621 98.9588 29.3089 99.7647 30.911L100.658 30.4616ZM99.5842 25.1179H100.584C100.584 23.0675 100.925 21.406 101.559 20.0938L100.658 19.6591L99.7575 19.2243C98.9591 20.8781 98.5842 22.8558 98.5842 25.1179H99.5842ZM100.658 19.6591L101.558 20.096C102.212 18.7484 103.07 17.7729 104.116 17.1193L103.586 16.2713L103.056 15.4233C101.647 16.3038 100.553 17.5869 99.7585 19.2222L100.658 19.6591ZM103.586 16.2713L104.12 17.1167C105.181 16.4462 106.362 16.108 107.689 16.108V15.108V14.108C105.999 14.108 104.445 14.5453 103.051 15.426L103.586 16.2713ZM107.689 15.108V16.108C108.734 16.108 109.506 16.2872 110.06 16.5801L110.527 15.696L110.995 14.812C110.066 14.3208 108.945 14.108 107.689 14.108V15.108ZM110.527 15.696L110.072 16.5864C110.722 16.9189 111.201 17.3018 111.541 17.7201L112.317 17.0895L113.093 16.4589C112.547 15.7862 111.832 15.2402 110.983 14.8057L110.527 15.696ZM112.317 17.0895L111.546 17.7261C111.953 18.2192 112.24 18.6587 112.426 19.0451L113.327 18.6108L114.228 18.1765C113.954 17.6083 113.568 17.0337 113.088 16.4529L112.317 17.0895ZM113.327 18.6108V19.6108H113.583V18.6108V17.6108H113.327V18.6108ZM113.583 18.6108H114.583V15.3636H113.583H112.583V18.6108H113.583ZM113.583 15.3636V16.3636H118.147V15.3636V14.3636H113.583V15.3636ZM118.147 15.3636H117.147V35.3196H118.147H119.147V15.3636H118.147ZM118.147 35.3196H117.147C117.147 36.8373 116.787 38.0066 116.137 38.8983L116.945 39.4872L117.753 40.0761C118.706 38.769 119.147 37.1599 119.147 35.3196H118.147ZM116.945 39.4872L116.137 38.8983C115.458 39.8292 114.524 40.5408 113.294 41.0237L113.659 41.9545L114.025 42.8854C115.573 42.2774 116.829 41.3441 117.753 40.0761L116.945 39.4872ZM113.659 41.9545L113.294 41.0237C112.04 41.516 110.591 41.7727 108.929 41.7727V42.7727V43.7727C110.796 43.7727 112.5 43.484 114.025 42.8854L113.659 41.9545ZM108.968 31.0881V32.0881C110.116 32.0881 111.158 31.806 112.042 31.1947L111.473 30.3722L110.905 29.5496C110.408 29.8929 109.78 30.0881 108.968 30.0881V31.0881ZM111.473 30.3722L112.042 31.1947C112.917 30.5898 113.554 29.7348 113.974 28.6853L113.046 28.3139L112.117 27.9425C111.821 28.6828 111.41 29.2 110.905 29.5496L111.473 30.3722ZM113.046 28.3139L113.974 28.6853C114.391 27.6427 114.583 26.4361 114.583 25.0923H113.583H112.583C112.583 26.2543 112.416 27.1953 112.117 27.9425L113.046 28.3139ZM113.583 25.0923H114.583C114.583 23.7622 114.39 22.5533 113.979 21.4856L113.046 21.8452L112.113 22.2047C112.417 22.995 112.583 23.9509 112.583 25.0923H113.583ZM113.046 21.8452L113.982 21.4931C113.575 20.4126 112.949 19.524 112.081 18.8811L111.486 19.6847L110.891 20.4882C111.404 20.8681 111.817 21.4198 112.11 22.1972L113.046 21.8452ZM111.486 19.6847L112.092 18.8895C111.209 18.2158 110.147 17.9048 108.968 17.9048V18.9048V19.9048C109.783 19.9048 110.4 20.1137 110.88 20.4799L111.486 19.6847ZM108.968 18.9048V17.9048C107.755 17.9048 106.667 18.224 105.771 18.9209L106.385 19.7102L106.999 20.4996C107.484 20.1226 108.117 19.9048 108.968 19.9048V18.9048ZM106.385 19.7102L105.771 18.9209C104.914 19.5874 104.293 20.4869 103.889 21.5726L104.826 21.9219L105.763 22.2711C106.057 21.4819 106.475 20.9069 106.999 20.4996L106.385 19.7102ZM104.826 21.9219L103.89 21.5698C103.491 22.6308 103.301 23.8101 103.301 25.0923H104.301H105.301C105.301 24.0052 105.462 23.0709 105.762 22.2739L104.826 21.9219ZM104.301 25.0923H103.301C103.301 26.3888 103.49 27.5683 103.893 28.6107L104.826 28.25L105.758 27.8893C105.463 27.1249 105.301 26.1993 105.301 25.0923H104.301ZM104.826 28.25L103.897 28.6214C104.316 29.6679 104.948 30.5275 105.809 31.1549L106.398 30.3466L106.987 29.5383C106.468 29.16 106.051 28.6219 105.754 27.8786L104.826 28.25ZM106.398 30.3466L105.821 31.163C106.718 31.7976 107.786 32.0881 108.968 32.0881V31.0881V30.0881C108.121 30.0881 107.476 29.8842 106.976 29.5302L106.398 30.3466ZM122.89 35H121.89V36H122.89V35ZM122.89 15.3636V14.3636H121.89V15.3636H122.89ZM127.313 15.3636H128.313V14.3636H127.313V15.3636ZM127.313 18.7003H126.313V19.7003H127.313V18.7003ZM127.543 18.7003V19.7003H128.243L128.483 19.042L127.543 18.7003ZM129.576 16.0668L130.13 16.8988L130.135 16.8954L129.576 16.0668ZM136.326 16.0795L135.747 16.8949L135.755 16.9009L136.326 16.0795ZM138.269 18.7003L137.322 19.0209L137.552 19.7003H138.269V18.7003ZM138.473 18.7003V19.7003H139.151L139.402 19.0704L138.473 18.7003ZM140.672 16.0923L141.204 16.9391L141.206 16.938L140.672 16.0923ZM150.503 35V36H151.503V35H150.503ZM145.863 35H144.863V36H145.863V35ZM144.891 19.8636L144.23 20.6138L144.235 20.6187L144.891 19.8636ZM139.892 20.0554L139.15 19.3854L139.15 19.3859L139.892 20.0554ZM138.959 35V36H139.959V35H138.959ZM134.421 35H133.421V36H134.421V35ZM133.5 19.9148L132.793 20.6219L132.798 20.6268L133.5 19.9148ZM129.307 19.5185L129.828 20.3725L129.837 20.3665L129.307 19.5185ZM128.003 20.9375L128.885 21.4094L128.888 21.4043L128.003 20.9375ZM127.517 35V36H128.517V35H127.517ZM122.89 35H123.89V15.3636H122.89H121.89V35H122.89ZM122.89 15.3636V16.3636H127.313V15.3636V14.3636H122.89V15.3636ZM127.313 15.3636H126.313V18.7003H127.313H128.313V15.3636H127.313ZM127.313 18.7003V19.7003H127.543V18.7003V17.7003H127.313V18.7003ZM127.543 18.7003L128.483 19.042C128.823 18.106 129.371 17.4048 130.13 16.8988L129.576 16.0668L129.021 15.2347C127.888 15.9901 127.081 17.0445 126.603 18.3585L127.543 18.7003ZM129.576 16.0668L130.135 16.8954C130.892 16.3839 131.82 16.108 132.963 16.108V15.108V14.108C131.482 14.108 130.151 14.4712 129.016 15.2382L129.576 16.0668ZM132.963 15.108V16.108C134.126 16.108 135.034 16.3886 135.747 16.8948L136.326 16.0795L136.905 15.2643C135.794 14.4751 134.46 14.108 132.963 14.108V15.108ZM136.326 16.0795L135.755 16.9009C136.492 17.4123 137.012 18.1064 137.322 19.0209L138.269 18.7003L139.216 18.3797C138.776 17.0782 138.001 16.0252 136.896 15.2582L136.326 16.0795ZM138.269 18.7003V19.7003H138.473V18.7003V17.7003H138.269V18.7003ZM138.473 18.7003L139.402 19.0704C139.755 18.1841 140.345 17.4786 141.204 16.9391L140.672 16.0923L140.14 15.2455C138.937 16.0016 138.061 17.0346 137.544 18.3301L138.473 18.7003ZM140.672 16.0923L141.206 16.938C142.062 16.3976 143.102 16.108 144.367 16.108V15.108V14.108C142.785 14.108 141.362 14.4745 140.138 15.2467L140.672 16.0923ZM144.367 15.108V16.108C145.943 16.108 147.152 16.5966 148.083 17.5281L148.79 16.821L149.497 16.1139C148.145 14.7613 146.404 14.108 144.367 14.108V15.108ZM148.79 16.821L148.083 17.5281C148.979 18.4237 149.503 19.7975 149.503 21.8196H150.503H151.503C151.503 19.461 150.886 17.5025 149.497 16.1139L148.79 16.821ZM150.503 21.8196H149.503V35H150.503H151.503V21.8196H150.503ZM150.503 35V34H145.863V35V36H150.503V35ZM145.863 35H146.863V22.5355H145.863H144.863V35H145.863ZM145.863 22.5355H146.863C146.863 21.1529 146.493 19.9304 145.547 19.1086L144.891 19.8636L144.235 20.6187C144.584 20.9219 144.863 21.4806 144.863 22.5355H145.863ZM144.891 19.8636L145.552 19.1135C144.706 18.3671 143.672 18.0071 142.513 18.0071V19.0071V20.0071C143.23 20.0071 143.781 20.2181 144.23 20.6138L144.891 19.8636ZM142.513 19.0071V18.0071C141.171 18.0071 140.006 18.4373 139.15 19.3854L139.892 20.0554L140.635 20.7254C141.04 20.2758 141.622 20.0071 142.513 20.0071V19.0071ZM139.892 20.0554L139.15 19.3859C138.331 20.2941 137.959 21.4478 137.959 22.7528H138.959H139.959C139.959 21.842 140.209 21.1974 140.635 20.7249L139.892 20.0554ZM138.959 22.7528H137.959V35H138.959H139.959V22.7528H138.959ZM138.959 35V34H134.421V35V36H138.959V35ZM134.421 35H135.421V22.3438H134.421H133.421V35H134.421ZM134.421 22.3438H135.421C135.421 21.113 135.04 20.0288 134.203 19.2027L133.5 19.9148L132.798 20.6268C133.188 21.0109 133.421 21.5461 133.421 22.3438H134.421ZM133.5 19.9148L134.207 19.2077C133.387 18.3874 132.326 18.0071 131.123 18.0071V19.0071V20.0071C131.879 20.0071 132.403 20.232 132.793 20.6219L133.5 19.9148ZM131.123 19.0071V18.0071C130.277 18.0071 129.487 18.2268 128.777 18.6705L129.307 19.5185L129.837 20.3665C130.218 20.1283 130.639 20.0071 131.123 20.0071V19.0071ZM129.307 19.5185L128.787 18.6645C128.074 19.0988 127.519 19.7118 127.119 20.4707L128.003 20.9375L128.888 21.4043C129.135 20.9359 129.449 20.6029 129.828 20.3724L129.307 19.5185ZM128.003 20.9375L127.122 20.4656C126.707 21.2399 126.517 22.1149 126.517 23.0597H127.517H128.517C128.517 22.3851 128.652 21.8453 128.885 21.4094L128.003 20.9375ZM127.517 23.0597H126.517V35H127.517H128.517V23.0597H127.517ZM127.517 35V34H122.89V35V36H127.517V35ZM157.487 34.7315L157.071 35.6411L157.08 35.6453L157.487 34.7315ZM155.134 32.7372L154.296 33.2825L154.3 33.2882L155.134 32.7372ZM154.891 26.7415L154.021 26.2498L154.021 26.2498L154.891 26.7415ZM156.566 25.0028L156.043 24.1508L156.043 24.1508L156.566 25.0028ZM158.957 24.0185L159.199 24.9886L159.206 24.987L158.957 24.0185ZM161.731 23.5199L161.628 22.5252L161.624 22.5256L161.731 23.5199ZM164.531 23.2003L164.66 24.1919L164.672 24.1902L164.531 23.2003ZM166.09 22.7401L166.624 23.5856L166.63 23.5819L166.09 22.7401ZM165.732 19.4418L166.411 18.7078L166.411 18.7078L165.732 19.4418ZM160.567 19.3906L159.971 18.5881L159.966 18.5919L160.567 19.3906ZM159.238 21.142L159.097 22.1321L159.917 22.2485L160.184 21.4655L159.238 21.142ZM154.917 20.5284L153.955 20.2537L153.64 21.3571L154.776 21.5185L154.917 20.5284ZM156.604 17.5369L157.319 18.2364L157.323 18.2326L156.604 17.5369ZM159.481 15.7216L159.814 16.6645L159.82 16.6622L159.481 15.7216ZM168.634 16.5398L168.084 17.3747L168.09 17.3788L168.634 16.5398ZM170.501 18.598L169.62 19.0726L169.624 19.0793L170.501 18.598ZM171.217 35V36H172.217V35H171.217ZM166.768 35H165.768V36H166.768V35ZM166.768 32.3026H167.768V31.3026H166.768V32.3026ZM166.614 32.3026V31.3026H166.005L165.726 31.8443L166.614 32.3026ZM165.425 33.8366L166.107 34.5681L166.108 34.5677L165.425 33.8366ZM163.521 34.9744L163.868 35.9121L163.874 35.9099L163.521 34.9744ZM164.467 31.446L164.94 32.3269L164.949 32.3222L164.467 31.446ZM166.039 29.9631L165.186 29.4416L165.181 29.4503L166.039 29.9631ZM166.602 25.642H167.602V23.5231L165.966 24.8701L166.602 25.642ZM165.86 25.9744L165.579 25.0147L165.573 25.0166L165.86 25.9744ZM164.71 26.2429L164.887 27.2271L164.887 27.2271L164.71 26.2429ZM162.357 26.6009L162.492 27.5918L162.495 27.5913L162.357 26.6009ZM160.504 27.0611L160.14 26.1296L160.14 26.1296L160.504 27.0611ZM159.212 27.956L159.978 28.5996L159.985 28.5911L159.212 27.956ZM159.673 31.3438L159.1 32.1635L159.1 32.1635L159.673 31.3438ZM160.849 35.3963V34.3963C159.725 34.3963 158.745 34.1966 157.893 33.8177L157.487 34.7315L157.08 35.6453C158.222 36.1528 159.484 36.3963 160.849 36.3963V35.3963ZM157.487 34.7315L157.902 33.822C157.078 33.4454 156.441 32.9023 155.969 32.1863L155.134 32.7372L154.3 33.2882C154.986 34.3278 155.918 35.1142 157.071 35.6411L157.487 34.7315ZM155.134 32.7372L155.972 32.1919C155.529 31.51 155.278 30.6279 155.278 29.4901H154.278H153.278C153.278 30.9261 153.597 32.2087 154.296 33.2825L155.134 32.7372ZM154.278 29.4901H155.278C155.278 28.4992 155.461 27.7659 155.762 27.2332L154.891 26.7415L154.021 26.2498C153.503 27.1659 153.278 28.265 153.278 29.4901H154.278ZM154.891 26.7415L155.762 27.2332C156.088 26.656 156.527 26.2006 157.09 25.8549L156.566 25.0028L156.043 24.1508C155.19 24.6744 154.513 25.3781 154.021 26.2498L154.891 26.7415ZM156.566 25.0028L157.09 25.8549C157.702 25.4788 158.402 25.1879 159.199 24.9886L158.957 24.0185L158.714 23.0483C157.739 23.2922 156.845 23.6576 156.043 24.1508L156.566 25.0028ZM158.957 24.0185L159.206 24.987C160.052 24.7693 160.929 24.6115 161.837 24.5142L161.731 23.5199L161.624 22.5256C160.624 22.6328 159.651 22.8074 158.708 23.05L158.957 24.0185ZM161.731 23.5199L161.834 24.5146C162.989 24.3948 163.932 24.2872 164.66 24.1918L164.531 23.2003L164.401 22.2087C163.697 22.3009 162.774 22.4063 161.628 22.5252L161.731 23.5199ZM164.531 23.2003L164.672 24.1902C165.425 24.0826 166.117 23.9058 166.624 23.5855L166.09 22.7401L165.556 21.8946C165.416 21.9834 165.068 22.1134 164.389 22.2103L164.531 23.2003ZM166.09 22.7401L166.63 23.5819C167.288 23.1599 167.589 22.4903 167.589 21.7557H166.589H165.589C165.589 21.8042 165.584 21.8365 165.58 21.8559C165.576 21.8746 165.572 21.882 165.572 21.8823C165.572 21.8827 165.572 21.8824 165.572 21.8817C165.573 21.881 165.573 21.8808 165.573 21.8811C165.573 21.8814 165.567 21.8877 165.551 21.8982L166.09 22.7401ZM166.589 21.7557H167.589V21.679H166.589H165.589V21.7557H166.589ZM166.589 21.679H167.589C167.589 20.5084 167.234 19.4689 166.411 18.7078L165.732 19.4418L165.053 20.1757C165.373 20.4714 165.589 20.9235 165.589 21.679H166.589ZM165.732 19.4418L166.411 18.7078C165.595 17.9525 164.494 17.6491 163.265 17.6491V18.6491V19.6491C164.184 19.6491 164.727 19.8742 165.053 20.1757L165.732 19.4418ZM163.265 18.6491V17.6491C161.994 17.6491 160.861 17.9258 159.971 18.5882L160.567 19.3906L161.164 20.1931C161.603 19.8668 162.269 19.6491 163.265 19.6491V18.6491ZM160.567 19.3906L159.966 18.5919C159.175 19.1874 158.596 19.9279 158.292 20.8186L159.238 21.142L160.184 21.4655C160.34 21.0096 160.647 20.5825 161.169 20.1894L160.567 19.3906ZM159.238 21.142L159.379 20.152L155.058 19.5383L154.917 20.5284L154.776 21.5185L159.097 22.1321L159.238 21.142ZM154.917 20.5284L155.878 20.8031C156.179 19.7524 156.663 18.9064 157.319 18.2364L156.604 17.5369L155.89 16.8375C154.977 17.7698 154.337 18.918 153.955 20.2537L154.917 20.5284ZM156.604 17.5369L157.323 18.2326C157.992 17.5413 158.816 17.017 159.814 16.6645L159.481 15.7216L159.148 14.7787C157.878 15.2273 156.785 15.9132 155.886 16.8413L156.604 17.5369ZM159.481 15.7216L159.82 16.6622C160.831 16.2974 161.967 16.108 163.239 16.108V15.108V14.108C161.767 14.108 160.398 14.3276 159.141 14.781L159.481 15.7216ZM163.239 15.108V16.108C164.107 16.108 164.971 16.2094 165.835 16.4135L166.065 15.4403L166.295 14.4672C165.283 14.2281 164.264 14.108 163.239 14.108V15.108ZM166.065 15.4403L165.835 16.4135C166.662 16.6092 167.41 16.9302 168.084 17.3746L168.634 16.5398L169.185 15.7049C168.308 15.1266 167.342 14.7147 166.295 14.4672L166.065 15.4403ZM168.634 16.5398L168.09 17.3788C168.715 17.7841 169.226 18.3407 169.621 19.0726L170.501 18.598L171.381 18.1234C170.838 17.1167 170.104 16.3011 169.178 15.7007L168.634 16.5398ZM170.501 18.598L169.624 19.0793C169.999 19.7619 170.217 20.671 170.217 21.858H171.217H172.217C172.217 20.437 171.957 19.1728 171.377 18.1168L170.501 18.598ZM171.217 21.858H170.217V35H171.217H172.217V21.858H171.217ZM171.217 35V34H166.768V35V36H171.217V35ZM166.768 35H167.768V32.3026H166.768H165.768V35H166.768ZM166.768 32.3026V31.3026H166.614V32.3026V33.3026H166.768V32.3026ZM166.614 32.3026L165.726 31.8443C165.504 32.2744 165.182 32.6959 164.743 33.1056L165.425 33.8366L166.108 34.5677C166.692 34.0229 167.162 33.4216 167.503 32.7608L166.614 32.3026ZM165.425 33.8366L164.744 33.1052C164.352 33.4699 163.836 33.7865 163.167 34.039L163.521 34.9744L163.874 35.9099C164.74 35.5828 165.493 35.1409 166.107 34.5681L165.425 33.8366ZM163.521 34.9744L163.173 34.0368C162.551 34.2675 161.783 34.3963 160.849 34.3963V35.3963V36.3963C161.96 36.3963 162.973 36.2438 163.868 35.9121L163.521 34.9744ZM162.05 31.9957V32.9957C163.112 32.9957 164.086 32.7858 164.94 32.3268L164.467 31.446L163.993 30.5652C163.483 30.8392 162.847 30.9957 162.05 30.9957V31.9957ZM164.467 31.446L164.949 32.3222C165.772 31.8695 166.432 31.2553 166.898 30.4758L166.039 29.9631L165.181 29.4503C164.913 29.8981 164.525 30.2725 163.985 30.5698L164.467 31.446ZM166.039 29.9631L166.892 30.4845C167.364 29.7127 167.602 28.863 167.602 27.956H166.602H165.602C165.602 28.4978 165.464 28.9862 165.186 29.4416L166.039 29.9631ZM166.602 27.956H167.602V25.642H166.602H165.602V27.956H166.602ZM166.602 25.642L165.966 24.8701C165.985 24.854 165.973 24.8686 165.898 24.9021C165.828 24.9338 165.724 24.9723 165.579 25.0147L165.86 25.9744L166.141 26.9342C166.521 26.8229 166.93 26.6668 167.237 26.414L166.602 25.642ZM165.86 25.9744L165.573 25.0166C165.275 25.106 164.929 25.1873 164.532 25.2587L164.71 26.2429L164.887 27.2271C165.342 27.1451 165.764 27.0474 166.147 26.9323L165.86 25.9744ZM164.71 26.2429L164.532 25.2587C164.118 25.3333 163.708 25.3996 163.302 25.4575L163.444 26.4474L163.585 27.4374C164.015 27.376 164.449 27.3059 164.887 27.2271L164.71 26.2429ZM163.444 26.4474L163.302 25.4575C162.886 25.517 162.525 25.568 162.22 25.6104L162.357 26.6009L162.495 27.5913C162.803 27.5485 163.167 27.4972 163.585 27.4374L163.444 26.4474ZM162.357 26.6009L162.223 25.6099C161.468 25.7124 160.771 25.8829 160.14 26.1296L160.504 27.0611L160.867 27.9925C161.327 27.8131 161.866 27.6768 162.492 27.5918L162.357 26.6009ZM160.504 27.0611L160.14 26.1296C159.464 26.3937 158.882 26.7833 158.44 27.3209L159.212 27.956L159.985 28.5911C160.174 28.3615 160.453 28.1546 160.867 27.9925L160.504 27.0611ZM159.212 27.956L158.447 27.3124C157.949 27.9045 157.739 28.6345 157.739 29.4134H158.739H159.739C159.739 28.999 159.845 28.7574 159.978 28.5996L159.212 27.956ZM158.739 29.4134H157.739C157.739 30.5456 158.174 31.5165 159.1 32.1635L159.673 31.3438L160.245 30.524C159.927 30.3016 159.739 29.9857 159.739 29.4134H158.739ZM159.673 31.3438L159.1 32.1635C159.93 32.7436 160.938 32.9957 162.05 32.9957V31.9957V30.9957C161.237 30.9957 160.659 30.8133 160.245 30.524L159.673 31.3438ZM179.437 35V36H180.156L180.385 35.318L179.437 35ZM174.374 35L173.431 34.6679L172.962 36H174.374V35ZM183.592 8.81818V7.81818H182.884L182.648 8.48611L183.592 8.81818ZM189.447 8.81818L190.39 8.4857L190.155 7.81818H189.447V8.81818ZM198.677 35V36H200.09L199.62 34.6675L198.677 35ZM193.614 35L192.666 35.3185L192.895 36H193.614V35ZM186.621 14.1875L187.569 13.869L187.34 13.1875H186.621V14.1875ZM186.417 14.1875V13.1875H185.698L185.469 13.8695L186.417 14.1875ZM179.603 24.7344V23.7344H178.603V24.7344H179.603ZM193.41 24.7344H194.41V23.7344H193.41V24.7344ZM193.41 28.544V29.544H194.41V28.544H193.41ZM179.603 28.544H178.603V29.544H179.603V28.544ZM179.437 35V34H174.374V35V36H179.437V35ZM174.374 35L175.318 35.3321L184.535 9.15025L183.592 8.81818L182.648 8.48611L173.431 34.6679L174.374 35ZM183.592 8.81818V9.81818H189.447V8.81818V7.81818H183.592V8.81818ZM189.447 8.81818L188.504 9.15066L197.734 35.3325L198.677 35L199.62 34.6675L190.39 8.4857L189.447 8.81818ZM198.677 35V34H193.614V35V36H198.677V35ZM193.614 35L194.562 34.6815L187.569 13.869L186.621 14.1875L185.674 14.506L192.666 35.3185L193.614 35ZM186.621 14.1875V13.1875H186.417V14.1875V15.1875H186.621V14.1875ZM186.417 14.1875L185.469 13.8695L178.489 34.682L179.437 35L180.385 35.318L187.365 14.5055L186.417 14.1875ZM179.603 24.7344V25.7344H193.41V24.7344V23.7344H179.603V24.7344ZM193.41 24.7344H192.41V28.544H193.41H194.41V24.7344H193.41ZM193.41 28.544V27.544H179.603V28.544V29.544H193.41V28.544ZM179.603 28.544H180.603V24.7344H179.603H178.603V28.544H179.603ZM206.868 8.81818H207.868V7.81818H206.868V8.81818ZM206.868 35V36H207.868V35H206.868ZM202.125 35H201.125V36H202.125V35ZM202.125 8.81818V7.81818H201.125V8.81818H202.125ZM206.868 8.81818H205.868V35H206.868H207.868V8.81818H206.868ZM206.868 35V34H202.125V35V36H206.868V35ZM202.125 35H203.125V8.81818H202.125H201.125V35H202.125ZM202.125 8.81818V9.81818H206.868V8.81818V7.81818H202.125V8.81818Z" fill="white" fill-opacity="0.62" mask="url(#path-1-outside-1_304_2)"/>
<path d="M11.7504 2.84998H35.2504C40.1656 2.85019 44.1498 6.83516 44.1498 11.7504V35.2504C44.1496 40.1654 40.1654 44.1496 35.2504 44.1498H11.7504C6.83519 44.1498 2.85022 40.1655 2.85001 35.2504V11.7504L2.86172 11.2924C3.09223 6.74127 6.7413 3.0922 11.2924 2.86169L11.7504 2.84998Z" fill="#1A1A1A" stroke="white"/>
<path d="M14.1 14.1L23.5 21.15L32.9 14.1V32.9L23.5 25.85L14.1 32.9V14.1Z" fill="white"/>
<path d="M14.1 32.9L23.5 25.85L32.9 32.9H14.1Z" fill="#666666"/>
</svg>
