<svg width="210" height="47" viewBox="0 0 210 47" fill="none" xmlns="http://www.w3.org/2000/svg">
<path d="M58.5824 8.81818H64.3864L72.1591 27.7898H72.4659L80.2386 8.81818H86.0426V35H81.4915V17.0128H81.2486L74.0128 34.9233H70.6122L63.3764 16.9744H63.1335V35H58.5824V8.81818ZM91.0028 35V15.3636H95.6307V35H91.0028ZM93.3295 12.5767C92.5966 12.5767 91.9659 12.3338 91.4375 11.848C90.9091 11.3537 90.6449 10.7614 90.6449 10.071C90.6449 9.37216 90.9091 8.77983 91.4375 8.29403C91.9659 7.79971 92.5966 7.55256 93.3295 7.55256C94.071 7.55256 94.7017 7.79971 95.2216 8.29403C95.75 8.77983 96.0142 9.37216 96.0142 10.071C96.0142 10.7614 95.75 11.3537 95.2216 11.848C94.7017 12.3338 94.071 12.5767 93.3295 12.5767ZM108.929 42.7727C107.267 42.7727 105.84 42.5469 104.647 42.0952C103.453 41.652 102.495 41.0554 101.77 40.3054C101.046 39.5554 100.543 38.7244 100.262 37.8125L104.429 36.8026C104.617 37.1861 104.89 37.5653 105.248 37.9403C105.605 38.3239 106.087 38.6392 106.692 38.8864C107.306 39.142 108.077 39.2699 109.006 39.2699C110.319 39.2699 111.405 38.9503 112.266 38.3111C113.127 37.6804 113.557 36.6406 113.557 35.1918V31.4716H113.327C113.088 31.9489 112.739 32.4389 112.279 32.9418C111.827 33.4446 111.226 33.8665 110.476 34.2074C109.735 34.5483 108.801 34.7188 107.676 34.7188C106.168 34.7188 104.8 34.3651 103.573 33.6577C102.354 32.9418 101.382 31.8764 100.658 30.4616C99.9421 29.0384 99.5842 27.2571 99.5842 25.1179C99.5842 22.9616 99.9421 21.142 100.658 19.6591C101.382 18.1676 102.358 17.0384 103.586 16.2713C104.813 15.4957 106.181 15.108 107.689 15.108C108.84 15.108 109.786 15.304 110.527 15.696C111.277 16.0795 111.874 16.544 112.317 17.0895C112.76 17.6264 113.097 18.1335 113.327 18.6108H113.583V15.3636H118.147V35.3196C118.147 36.9986 117.746 38.3878 116.945 39.4872C116.144 40.5866 115.049 41.4091 113.659 41.9545C112.27 42.5 110.694 42.7727 108.929 42.7727ZM108.968 31.0881C109.948 31.0881 110.783 30.8494 111.473 30.3722C112.164 29.8949 112.688 29.2088 113.046 28.3139C113.404 27.419 113.583 26.3452 113.583 25.0923C113.583 23.8565 113.404 22.7741 113.046 21.8452C112.696 20.9162 112.176 20.196 111.486 19.6847C110.804 19.1648 109.965 18.9048 108.968 18.9048C107.936 18.9048 107.076 19.1733 106.385 19.7102C105.695 20.2472 105.175 20.9844 104.826 21.9219C104.476 22.8509 104.301 23.9077 104.301 25.0923C104.301 26.294 104.476 27.3466 104.826 28.25C105.184 29.1449 105.708 29.8437 106.398 30.3466C107.097 30.8409 107.953 31.0881 108.968 31.0881ZM122.89 35V15.3636H127.313V18.7003H127.543C127.952 17.5753 128.63 16.6974 129.576 16.0668C130.522 15.4276 131.651 15.108 132.963 15.108C134.293 15.108 135.414 15.4318 136.326 16.0795C137.246 16.7187 137.894 17.5923 138.269 18.7003H138.473C138.908 17.6094 139.641 16.7401 140.672 16.0923C141.712 15.4361 142.944 15.108 144.367 15.108C146.174 15.108 147.648 15.679 148.79 16.821C149.932 17.9631 150.503 19.6293 150.503 21.8196V35H145.863V22.5355C145.863 21.3168 145.539 20.4261 144.891 19.8636C144.243 19.2926 143.451 19.0071 142.513 19.0071C141.397 19.0071 140.523 19.3565 139.892 20.0554C139.27 20.7457 138.959 21.6449 138.959 22.7528V35H134.421V22.3438C134.421 21.3295 134.114 20.5199 133.5 19.9148C132.895 19.3097 132.103 19.0071 131.123 19.0071C130.458 19.0071 129.853 19.1776 129.307 19.5185C128.762 19.8509 128.327 20.3239 128.003 20.9375C127.679 21.5426 127.517 22.25 127.517 23.0597V35H122.89ZM160.849 35.3963C159.604 35.3963 158.484 35.1747 157.487 34.7315C156.498 34.2798 155.714 33.6151 155.134 32.7372C154.563 31.8594 154.278 30.777 154.278 29.4901C154.278 28.3821 154.482 27.4659 154.891 26.7415C155.3 26.017 155.859 25.4375 156.566 25.0028C157.273 24.5682 158.07 24.2401 158.957 24.0185C159.852 23.7884 160.776 23.6222 161.731 23.5199C162.881 23.4006 163.815 23.294 164.531 23.2003C165.246 23.098 165.766 22.9446 166.09 22.7401C166.423 22.527 166.589 22.1989 166.589 21.7557V21.679C166.589 20.7159 166.303 19.9702 165.732 19.4418C165.161 18.9134 164.339 18.6491 163.265 18.6491C162.131 18.6491 161.232 18.8963 160.567 19.3906C159.911 19.8849 159.468 20.4687 159.238 21.142L154.917 20.5284C155.258 19.3352 155.82 18.3381 156.604 17.5369C157.388 16.7273 158.347 16.1222 159.481 15.7216C160.614 15.3125 161.867 15.108 163.239 15.108C164.185 15.108 165.127 15.2188 166.065 15.4403C167.002 15.6619 167.859 16.0284 168.634 16.5398C169.41 17.0426 170.032 17.7287 170.501 18.598C170.978 19.4673 171.217 20.554 171.217 21.858V35H166.768V32.3026H166.614C166.333 32.848 165.937 33.3594 165.425 33.8366C164.923 34.3054 164.288 34.6847 163.521 34.9744C162.762 35.2557 161.871 35.3963 160.849 35.3963ZM162.05 31.9957C162.979 31.9957 163.785 31.8125 164.467 31.446C165.148 31.071 165.673 30.5767 166.039 29.9631C166.414 29.3494 166.602 28.6804 166.602 27.956V25.642C166.457 25.7614 166.21 25.8722 165.86 25.9744C165.519 26.0767 165.136 26.1662 164.71 26.2429C164.283 26.3196 163.862 26.3878 163.444 26.4474C163.026 26.5071 162.664 26.5582 162.357 26.6009C161.667 26.6946 161.049 26.848 160.504 27.0611C159.958 27.2741 159.528 27.5724 159.212 27.956C158.897 28.331 158.739 28.8168 158.739 29.4134C158.739 30.2656 159.05 30.9091 159.673 31.3438C160.295 31.7784 161.087 31.9957 162.05 31.9957ZM179.437 35H174.374L183.592 8.81818H189.447L198.677 35H193.614L186.621 14.1875H186.417L179.437 35ZM179.603 24.7344H193.41V28.544H179.603V24.7344ZM206.868 8.81818V35H202.125V8.81818H206.868Z" fill="black"/>
<path d="M35.25 2.34998H11.75C6.55853 2.34998 2.35001 6.5585 2.35001 11.75V35.25C2.35001 40.4415 6.55853 44.65 11.75 44.65H35.25C40.4415 44.65 44.65 40.4415 44.65 35.25V11.75C44.65 6.5585 40.4415 2.34998 35.25 2.34998Z" fill="#1A1A1A"/>
<path d="M14.1 14.1L23.5 21.15L32.9 14.1V32.9L23.5 25.85L14.1 32.9V14.1Z" fill="white"/>
<path d="M14.1 32.9L23.5 25.85L32.9 32.9H14.1Z" fill="#666666"/>
</svg>
